<?xml version="1.0" encoding="utf-8"?>
<!-- Generator: Adobe Illustrator 16.0.0, SVG Export Plug-In . SVG Version: 6.00 Build 0)  -->
<!DOCTYPE svg PUBLIC "-//W3C//DTD SVG 1.1//EN" "http://www.w3.org/Graphics/SVG/1.1/DTD/svg11.dtd">
<svg version="1.1" id="图层_1" xmlns="http://www.w3.org/2000/svg" xmlns:xlink="http://www.w3.org/1999/xlink" x="0px" y="0px"
	 width="472.408px" height="118.035px" viewBox="0 0 472.408 118.035" enable-background="new 0 0 472.408 118.035"
	 xml:space="preserve">
<polygon fill="#E4007F" points="32.177,118.035 0,118.035 17.273,0 32.177,0 "/>
<polygon fill="#0B86D1" points="40.06,7.091 68.351,7.091 68.351,58.163 54.757,86.537 40.06,58.542 "/>
<polygon fill="#E4007F" points="76.814,118.035 108.992,118.035 91.721,0 76.814,0 "/>
<polygon fill="#515151" points="217.796,118.035 184.742,118.035 193.736,0 209.046,0 "/>
<path fill="#515151" d="M287.173,118.035V29.13h-61.81v88.905H287.173z M263.939,103.117h-15.344V46.979h15.344V103.117z"/>
<path fill="#515151" d="M115.741,29.13v88.905h61.808v-14.918h-38.574V88.224h38.574v-0.025V29.13H115.741z M154.316,70.375h-15.342
	V46.979h15.342V70.375z"/>
<path fill="#515151" d="M358.844,0h-23.234v29.13h-38.574v88.905h61.81L358.844,0L358.844,0z M335.609,103.117h-15.342V46.979
	h15.342V103.117z"/>
<polygon fill="#515151" points="464.996,66.583 472.408,66.583 472.408,29.13 459.515,29.13 455.254,0 440.347,0 440.347,118.035 
	472.523,118.035 "/>
<path fill="#515151" d="M430.652,118.035V29.13h-61.809v88.905H430.652z M407.417,103.117h-15.342V46.979h15.342V103.117z"/>
</svg>
